<?xml version="1.0" standalone="no"?>
<!DOCTYPE svg PUBLIC "-//W3C//DTD SVG 20010904//EN"
 "http://www.w3.org/TR/2001/REC-SVG-20010904/DTD/svg10.dtd">
<svg version="1.0" xmlns="http://www.w3.org/2000/svg"
 width="512.000000pt" height="512.000000pt" viewBox="0 0 512.000000 512.000000"
 preserveAspectRatio="xMidYMid meet">
<metadata>
Created by potrace 1.11, written by Peter Selinger 2001-2013
</metadata>
<g transform="translate(0.000000,512.000000) scale(0.100000,-0.100000)"
fill="#000000" stroke="none">
<path d="M0 2555 l0 -2055 2560 0 2560 0 0 2055 0 2055 -300 0 -300 0 0 -1060
0 -1060 -1960 0 -1960 0 0 1060 0 1060 -300 0 -300 0 0 -2055z m440 845 l0
-1060 2120 0 2120 0 0 1060 0 1060 145 0 145 0 0 -1900 0 -1900 -2410 0 -2410
0 0 660 0 660 1150 0 1150 0 0 80 0 80 -1150 0 -1150 0 0 1160 0 1160 145 0
145 0 0 -1060z"/>
<path d="M4742 4088 l3 -73 78 -3 77 -3 0 76 0 75 -80 0 -81 0 3 -72z"/>
<path d="M4742 3838 l3 -73 78 -3 77 -3 0 76 0 75 -80 0 -81 0 3 -72z"/>
<path d="M4742 3243 l3 -418 78 -3 77 -3 0 421 0 420 -80 0 -80 0 2 -417z"/>
<path d="M4720 2095 l0 -75 75 0 75 0 0 75 0 75 -75 0 -75 0 0 -75z"/>
<path d="M4720 1845 l0 -75 75 0 75 0 0 75 0 75 -75 0 -75 0 0 -75z"/>
<path d="M4720 1250 l0 -420 75 0 75 0 0 420 0 420 -75 0 -75 0 0 -420z"/>
<path d="M720 4355 l0 -75 1840 0 1840 0 0 75 0 75 -1840 0 -1840 0 0 -75z"/>
<path d="M720 4090 l0 -80 1840 0 1840 0 0 80 0 80 -1840 0 -1840 0 0 -80z"/>
<path d="M1960 3674 l0 -295 60 -104 60 -104 0 -275 0 -276 75 0 75 0 0 300 0
299 -30 51 -29 50 54 0 55 0 0 75 0 75 -80 0 -80 0 0 175 0 175 155 0 155 0 0
-202 0 -201 -60 -107 -60 -107 0 -291 0 -292 80 0 80 0 0 279 0 280 55 94 55
94 0 301 0 302 -310 0 -310 0 0 -296z"/>
<path d="M885 3772 l-200 -117 0 -350 0 -349 175 -101 175 -101 3 -67 3 -67
75 0 75 0 -3 112 -3 112 -172 100 -173 100 0 262 0 262 53 31 52 30 3 -252 2
-252 158 -90 c86 -49 164 -91 172 -93 8 -1 87 40 175 91 l160 92 5 251 5 251
53 -29 52 -30 0 -262 0 -262 -175 -99 -174 -100 -1 -112 0 -113 75 0 75 0 0
68 1 67 177 101 177 101 0 349 0 348 -205 118 c-112 65 -208 118 -212 118 -5
0 -8 -153 -8 -339 l0 -339 -87 -49 c-47 -26 -91 -47 -96 -45 -5 1 -45 23 -88
48 l-79 46 0 339 c0 265 -3 339 -12 338 -7 0 -103 -53 -213 -117z"/>
<path d="M2742 3667 l-122 -122 0 -178 0 -177 123 0 123 0 62 63 c58 58 62 66
62 108 0 56 13 69 67 69 l43 0 0 -108 0 -108 43 -42 c40 -39 46 -42 100 -42
l57 0 0 -255 0 -255 75 0 75 0 0 255 0 255 85 0 85 0 0 -255 0 -255 75 0 75 0
0 255 0 255 59 0 c57 0 59 1 105 50 40 43 52 50 84 50 32 0 45 -8 87 -50 l49
-50 153 0 153 0 0 330 0 330 -158 0 -158 0 -49 -50 c-42 -43 -55 -50 -87 -50
-24 0 -38 5 -38 13 0 7 -17 30 -38 50 l-38 37 -515 0 -514 0 -123 -123z m358
-57 l0 -30 -78 0 -78 0 -57 -58 c-52 -53 -57 -61 -57 -103 0 -48 -13 -69 -42
-69 -16 0 -18 9 -18 67 l0 68 77 77 78 78 87 0 88 0 0 -30z m720 -145 l0 -175
-280 0 -280 0 0 175 0 175 280 0 280 0 0 -175z m490 -1 l0 -175 -52 3 -53 3
-3 160 c-1 87 0 165 2 172 4 8 24 13 56 13 l50 0 0 -176z m-260 1 l0 -75 -40
0 -40 0 0 75 0 75 40 0 40 0 0 -75z"/>
</g>
</svg>
